<?xml version="1.0" standalone="no"?><!DOCTYPE svg PUBLIC "-//W3C//DTD SVG 1.1//EN" "http://www.w3.org/Graphics/SVG/1.1/DTD/svg11.dtd"><svg t="1699962314537" class="icon" viewBox="0 0 1024 1024" version="1.1" xmlns="http://www.w3.org/2000/svg" p-id="11489" xmlns:xlink="http://www.w3.org/1999/xlink" width="200" height="200"><path d="M1023.616 274.016c-4.608 99.616-74.208 236.192-208.8 409.408-139.2 180.8-256.992 271.392-353.408 271.392-59.616 0-110.208-55.008-151.392-165.216-27.616-100.992-55.008-202.016-82.592-303.008-30.592-110.208-63.392-165.184-98.592-165.184-7.584 0-34.4 16.192-80.416 48.192L0.224 307.584A12542.464 12542.464 0 0 0 149.632 174.4C217.024 116.192 267.648 85.6 301.44 82.4c79.584-7.584 128.8 46.816 147.2 163.392 19.808 125.792 33.6 204 41.408 234.592 23.008 104.416 48.192 156.608 75.808 156.608 21.408 0 53.6-33.792 96.608-101.6 42.784-67.616 65.792-119.2 68.992-154.592 6.208-58.4-16.8-87.808-68.992-87.808-24.608 0-49.792 5.6-75.808 16.8 50.4-164.8 146.4-244.8 288.384-240.192 104.992 2.784 154.592 71.008 148.608 204.416z" p-id="11490" data-spm-anchor-id="a313x.search_index.0.i23.21af3a81VSXlmJ" class="selected" fill="#4c5667"></path></svg>